<svg width="26" height="25" viewBox="0 0 26 25" fill="none" xmlns="http://www.w3.org/2000/svg">
<path d="M1.0498 11.4648C1.04866 11.0514 1.30078 10.6796 1.68555 10.5264H1.68652L3.58301 9.76855L3.82031 9.67383L3.90137 9.43066C4.03764 9.02008 4.20323 8.61763 4.39551 8.22754L4.50781 8L3.60547 5.89453H3.60352C3.43962 5.51397 3.52492 5.07351 3.81738 4.78223H3.81836L5.28125 3.32129L5.29688 3.30469C5.58618 3.02341 6.01949 2.94282 6.39258 3.10449L6.39453 3.10547L8.5 4.00781L8.72754 3.89551C9.11764 3.70324 9.52007 3.53766 9.93066 3.40137L10.1738 3.32031L10.2686 3.08301L11.0264 1.18652L11.0273 1.18555C11.1803 0.799994 11.5505 0.548607 11.9648 0.549805H14.0352C14.4506 0.548655 14.8219 0.800489 14.9727 1.18359L14.9736 1.18652L15.7314 3.08301L15.8262 3.32031L16.0693 3.40137C16.4799 3.53764 16.8824 3.70323 17.2725 3.89551L17.5 4.00781L19.6055 3.10547L19.6074 3.10449C19.9389 2.96086 20.3181 3.00822 20.6016 3.21777L20.7168 3.31738L20.7188 3.31836L22.1826 4.78223C22.4753 5.07379 22.56 5.51476 22.3955 5.89551L22.3916 5.90332L22.3887 5.91211L21.5879 7.95312L21.501 8.1748L21.6025 8.38965L22.124 9.49316L22.2158 9.68848L22.417 9.76855L24.3135 10.5264H24.3145C24.6993 10.6796 24.9514 11.0514 24.9502 11.4648V13.5352C24.9513 13.9486 24.6992 14.3204 24.3145 14.4736H24.3135L22.417 15.2314L22.1797 15.3262L22.0986 15.5693C21.9623 15.98 21.7965 16.3831 21.6055 16.7744L21.4951 17.001L21.5938 17.2324L22.0684 18.3389H22.0625L22.3955 19.1074C22.5593 19.4855 22.4756 19.9259 22.1826 20.2178L20.7188 21.6816C20.4258 21.9746 19.9844 22.0589 19.6074 21.8955L19.6055 21.8945L17.5 20.9922L17.2725 21.1045C16.8824 21.2968 16.4799 21.4623 16.0693 21.5986L15.8262 21.6797L15.7314 21.917L14.9736 23.8135L14.9727 23.8145C14.8197 24.2 14.4495 24.4514 14.0352 24.4502H11.9648C11.5494 24.4513 11.1781 24.1995 11.0273 23.8164L11.0264 23.8135L10.2686 21.917L10.1738 21.6797L9.93066 21.5986C9.52007 21.4624 9.11762 21.2968 8.72754 21.1045L8.5 20.9922L6.39453 21.8945L6.39258 21.8955C6.01554 22.0589 5.57421 21.9746 5.28125 21.6816L3.81738 20.2178L3.71777 20.1016C3.50768 19.8167 3.4606 19.4377 3.60449 19.1045L3.60352 19.1035L4.12695 17.9326L4.13184 17.9219L4.13574 17.9111L4.41113 17.2188L4.50098 16.9932L4.39453 16.7744C4.2035 16.3831 4.03767 15.98 3.90137 15.5693L3.82031 15.3262L3.58301 15.2314L1.68652 14.4736H1.68555C1.3007 14.3204 1.04861 13.9486 1.0498 13.5352V11.4648Z" stroke="black" stroke-width="1.1"/>
<path d="M12.793 5.10889C13.0417 5.10898 13.2527 5.31914 13.2529 5.56787V13.021L16.0156 10.2583C16.1931 10.0809 16.5061 10.0809 16.6836 10.2583C16.861 10.4358 16.861 10.7488 16.6836 10.9263L13.1406 14.4692L13.1152 14.4927C13.0305 14.6071 12.8853 14.6362 12.793 14.6362C12.6906 14.6362 12.5906 14.6019 12.4951 14.5151C12.4875 14.5121 12.4798 14.5091 12.4727 14.5044C12.4512 14.4901 12.4373 14.4719 12.4297 14.4565C12.4289 14.4549 12.4284 14.4532 12.4277 14.4517L8.90234 10.9263C8.72489 10.7488 8.72489 10.4358 8.90234 10.2583C9.07974 10.0812 9.39191 10.0812 9.56934 10.2583L12.333 13.022V5.56787C12.3333 5.31909 12.5441 5.10889 12.793 5.10889Z" fill="#121212" stroke="#121212" stroke-width="0.2"/>
<path d="M8.83301 16.8405H16.7219" stroke="#121212" stroke-width="1.1" stroke-miterlimit="10" stroke-linecap="round"/>
</svg>
