<svg width="20" height="20" viewBox="0 0 20 20" fill="none" xmlns="http://www.w3.org/2000/svg">
<path d="M10 19C14.9706 19 19 14.9706 19 10C19 5.02944 14.9706 1 10 1C5.02944 1 1 5.02944 1 10C1 14.9706 5.02944 19 10 19Z" stroke="#121212" stroke-width="1.3" stroke-linecap="square"/>
<path d="M9.99984 18.991C12.3938 16.8114 13.5908 13.8144 13.5908 10C13.5908 6.18567 12.3938 3.18867 9.99984 1.00903C7.60584 3.18867 6.40884 6.18567 6.40884 10C6.40884 13.8144 7.60584 16.8114 9.99984 18.991Z" stroke="#121212" stroke-width="1.3" stroke-linecap="round" stroke-linejoin="bevel"/>
<path d="M1.44991 7.29993H18.5499M1.44991 12.6999H18.5499" stroke="#121212" stroke-width="1.3" stroke-linecap="round"/>
</svg>
