<?xml version="1.0" encoding="UTF-8"?>
<svg version="1.1" viewBox="0 0 24 24" xmlns="http://www.w3.org/2000/svg">
 <g transform="translate(2.4375 2.3072)">
  <path d="m14.635 6.166a8 8 0 0 1 0.01563 0.48438 8 8 0 0 1-0.05469 0.93164c1.8806 0.82235 3.1953 2.6954 3.1953 4.8867 3.32e-4 0.94911-0.25234 1.8825-0.73242 2.7012a0.66672 0.66672 0 0 0-0.07031 0.50195l0.375 1.4629 0.16211 0.63086-0.63867-0.17773-1.5137-0.42188a0.66672 0.66672 0 0 0-0.48242 0.04883c-0.75278 0.38572-1.5859 0.58793-2.4316 0.58789-2.1955 0-4.0724-1.319-4.8926-3.2051a8 8 0 0 1-0.91602 0.05274 8 8 0 0 1-0.49805-0.01563c0.90039 2.6202 3.3891 4.502 6.3066 4.502 0.93425-2.31e-4 1.8363-0.2698 2.6875-0.64844l1.3828 0.38477 1.75 0.48828a0.66672 0.66672 0 0 0 0.82422-0.80859l-0.44922-1.75-0.3418-1.3379c0.47568-0.93526 0.81287-1.9431 0.8125-2.9961 0-2.9136-1.8757-5.3995-4.4902-6.3027z" stop-color="#000000" style="paint-order:markers stroke fill"/>
  <path transform="translate(-2.4414 -2.3008)" d="m9.1074 2.3008c-3.674 0-6.666 2.992-6.666 6.666-3.663e-4 1.053 0.33682 2.0608 0.8125 2.9961l-0.3418 1.3379-0.44922 1.75a0.66672 0.66672 0 0 0 0.82422 0.80859l1.75-0.48828 1.3828-0.38477c0.85171 0.37884 1.7526 0.64847 2.6875 0.64844 3.674 0 6.668-2.994 6.668-6.668 0-3.674-2.994-6.666-6.668-6.666zm0 1.334c2.9534 0 5.334 2.3786 5.334 5.332s-2.3806 5.334-5.334 5.334c-0.84584 3.2e-5 -1.6789-0.20218-2.4316-0.58789a0.66672 0.66672 0 0 0-0.48242-0.04883l-1.5137 0.42188-0.63867 0.17773 0.16211-0.63086 0.375-1.4629a0.66672 0.66672 0 0 0-0.070312-0.50195c-0.48008-0.8187-0.73275-1.7521-0.73242-2.7012 0-2.9534 2.3786-5.332 5.332-5.332z" stop-color="#000000" style="paint-order:markers stroke fill"/>
 </g>
</svg>
